<?xml version="1.0" encoding="UTF-8" standalone="no"?>
<!DOCTYPE svg PUBLIC "-//W3C//DTD SVG 1.1//EN"
 "http://www.w3.org/Graphics/SVG/1.1/DTD/svg11.dtd">
<!-- Generated by graphviz version 3.0.0 (20220226.1711)
 -->
<!-- Title: dependencies Pages: 1 -->
<svg width="1606pt" height="261pt"
 viewBox="0.00 0.00 1606.00 260.80" xmlns="http://www.w3.org/2000/svg" xmlns:xlink="http://www.w3.org/1999/xlink">
<g id="graph0" class="graph" transform="scale(1 1) rotate(0) translate(4 256.8)">
<title>dependencies</title>
<polygon fill="white" stroke="transparent" points="-4,4 -4,-256.8 1602,-256.8 1602,4 -4,4"/>
<text text-anchor="middle" x="799" y="-8.2" font-family="sans-serif" font-size="14.00">dependencies</text>
<g id="clust1" class="cluster">
<title>cluster_AppModule</title>
<polygon fill="none" stroke="black" stroke-dasharray="1,5" points="298,-32.8 298,-236.8 916,-236.8 916,-32.8 298,-32.8"/>
</g>
<g id="clust3" class="cluster">
<title>cluster_AppModule_imports</title>
<polygon fill="none" stroke="black" points="444,-40.8 444,-168.8 908,-168.8 908,-40.8 444,-40.8"/>
</g>
<g id="clust6" class="cluster">
<title>cluster_AppModule_providers</title>
<polygon fill="none" stroke="black" points="306,-116.8 306,-168.8 436,-168.8 436,-116.8 306,-116.8"/>
</g>
<g id="clust7" class="cluster">
<title>cluster_AuthModule</title>
<polygon fill="none" stroke="black" stroke-dasharray="1,5" points="8,-32.8 8,-100.8 290,-100.8 290,-32.8 8,-32.8"/>
</g>
<g id="clust12" class="cluster">
<title>cluster_AuthModule_providers</title>
<polygon fill="none" stroke="black" points="16,-40.8 16,-92.8 282,-92.8 282,-40.8 16,-40.8"/>
</g>
<g id="clust13" class="cluster">
<title>cluster_CoreModule</title>
<polygon fill="none" stroke="black" stroke-dasharray="1,5" points="924,-108.8 924,-176.8 1080,-176.8 1080,-108.8 924,-108.8"/>
</g>
<g id="clust16" class="cluster">
<title>cluster_CoreModule_exports</title>
<polygon fill="none" stroke="black" points="932,-116.8 932,-168.8 1072,-168.8 1072,-116.8 932,-116.8"/>
</g>
<g id="clust25" class="cluster">
<title>cluster_EmailHandlerModule</title>
<polygon fill="none" stroke="black" stroke-dasharray="1,5" points="1370,-32.8 1370,-244.8 1590,-244.8 1590,-32.8 1370,-32.8"/>
</g>
<g id="clust28" class="cluster">
<title>cluster_EmailHandlerModule_exports</title>
<polygon fill="none" stroke="black" points="1402,-184.8 1402,-236.8 1558,-236.8 1558,-184.8 1402,-184.8"/>
</g>
<g id="clust30" class="cluster">
<title>cluster_EmailHandlerModule_providers</title>
<polygon fill="none" stroke="black" points="1378,-40.8 1378,-92.8 1582,-92.8 1582,-40.8 1378,-40.8"/>
</g>
<g id="clust43" class="cluster">
<title>cluster_UsersModule</title>
<polygon fill="none" stroke="black" stroke-dasharray="1,5" points="1088,-108.8 1088,-176.8 1362,-176.8 1362,-108.8 1088,-108.8"/>
</g>
<g id="clust46" class="cluster">
<title>cluster_UsersModule_exports</title>
<polygon fill="none" stroke="black" points="1244,-116.8 1244,-168.8 1354,-168.8 1354,-116.8 1244,-116.8"/>
</g>
<g id="clust48" class="cluster">
<title>cluster_UsersModule_providers</title>
<polygon fill="none" stroke="black" points="1096,-116.8 1096,-168.8 1236,-168.8 1236,-116.8 1096,-116.8"/>
</g>
<!-- AuthModule -->
<g id="node1" class="node">
<title>AuthModule</title>
<polygon fill="#8dd3c7" stroke="black" points="564.55,-160.8 561.55,-164.8 540.55,-164.8 537.55,-160.8 477.45,-160.8 477.45,-124.8 564.55,-124.8 564.55,-160.8"/>
<text text-anchor="middle" x="521" y="-138.6" font-family="Times,serif" font-size="14.00">AuthModule</text>
</g>
<!-- AppModule -->
<g id="node6" class="node">
<title>AppModule</title>
<polygon fill="#8dd3c7" stroke="black" points="651.66,-228.8 648.66,-232.8 627.66,-232.8 624.66,-228.8 568.34,-228.8 568.34,-192.8 651.66,-192.8 651.66,-228.8"/>
<text text-anchor="middle" x="610" y="-206.6" font-family="Times,serif" font-size="14.00">AppModule</text>
</g>
<!-- AuthModule&#45;&gt;AppModule -->
<g id="edge1" class="edge">
<title>AuthModule&#45;&gt;AppModule</title>
<path fill="none" stroke="black" d="M521,-160.82C521,-178.17 521,-201.8 521,-201.8 521,-201.8 558.11,-201.8 558.11,-201.8"/>
<polygon fill="black" stroke="black" points="558.11,-205.3 568.11,-201.8 558.11,-198.3 558.11,-205.3"/>
</g>
<!-- CoreModule -->
<g id="node2" class="node">
<title>CoreModule</title>
<polygon fill="#8dd3c7" stroke="black" points="790.27,-84.8 787.27,-88.8 766.27,-88.8 763.27,-84.8 703.73,-84.8 703.73,-48.8 790.27,-48.8 790.27,-84.8"/>
<text text-anchor="middle" x="747" y="-62.6" font-family="Times,serif" font-size="14.00">CoreModule</text>
</g>
<!-- CoreModule&#45;&gt;AppModule -->
<g id="edge2" class="edge">
<title>CoreModule&#45;&gt;AppModule</title>
<path fill="none" stroke="black" d="M732.54,-84.84C732.54,-122.25 732.54,-204.8 732.54,-204.8 732.54,-204.8 661.83,-204.8 661.83,-204.8"/>
<polygon fill="black" stroke="black" points="661.83,-201.3 651.83,-204.8 661.83,-208.3 661.83,-201.3"/>
</g>
<!-- ...exportProvider()  -->
<g id="node10" class="node">
<title>...exportProvider() </title>
<polygon fill="#fb8072" stroke="black" points="1063.8,-160.8 940.2,-160.8 940.2,-124.8 1063.8,-124.8 1063.8,-160.8"/>
<text text-anchor="middle" x="1002" y="-138.6" font-family="Times,serif" font-size="14.00">...exportProvider() </text>
</g>
<!-- CoreModule&#45;&gt;...exportProvider()  -->
<g id="edge10" class="edge">
<title>CoreModule&#45;&gt;...exportProvider() </title>
<path fill="none" stroke="black" stroke-dasharray="5,2" d="M761.46,-85C761.46,-109.16 761.46,-148.8 761.46,-148.8 761.46,-148.8 930.06,-148.8 930.06,-148.8"/>
<polygon fill="black" stroke="black" points="930.06,-152.3 940.06,-148.8 930.06,-145.3 930.06,-152.3"/>
</g>
<!-- DatabaseModule -->
<g id="node3" class="node">
<title>DatabaseModule</title>
<polygon fill="#8dd3c7" stroke="black" points="685.36,-84.8 682.36,-88.8 661.36,-88.8 658.36,-84.8 574.64,-84.8 574.64,-48.8 685.36,-48.8 685.36,-84.8"/>
<text text-anchor="middle" x="630" y="-62.6" font-family="Times,serif" font-size="14.00">DatabaseModule</text>
</g>
<!-- DatabaseModule&#45;&gt;AppModule -->
<g id="edge3" class="edge">
<title>DatabaseModule&#45;&gt;AppModule</title>
<path fill="none" stroke="black" d="M613.2,-85.04C613.2,-85.04 613.2,-182.71 613.2,-182.71"/>
<polygon fill="black" stroke="black" points="609.7,-182.71 613.2,-192.71 616.7,-182.71 609.7,-182.71"/>
</g>
<!-- ThrottleModule -->
<g id="node4" class="node">
<title>ThrottleModule</title>
<polygon fill="#8dd3c7" stroke="black" points="556.15,-84.8 553.15,-88.8 532.15,-88.8 529.15,-84.8 451.85,-84.8 451.85,-48.8 556.15,-48.8 556.15,-84.8"/>
<text text-anchor="middle" x="504" y="-62.6" font-family="Times,serif" font-size="14.00">ThrottleModule</text>
</g>
<!-- ThrottleModule&#45;&gt;AppModule -->
<g id="edge4" class="edge">
<title>ThrottleModule&#45;&gt;AppModule</title>
<path fill="none" stroke="black" d="M464.45,-85.04C464.45,-123.79 464.45,-210.8 464.45,-210.8 464.45,-210.8 558.29,-210.8 558.29,-210.8"/>
<polygon fill="black" stroke="black" points="558.29,-214.3 568.29,-210.8 558.29,-207.3 558.29,-214.3"/>
</g>
<!-- UsersModule -->
<g id="node5" class="node">
<title>UsersModule</title>
<polygon fill="#8dd3c7" stroke="black" points="899.94,-84.8 896.94,-88.8 875.94,-88.8 872.94,-84.8 808.06,-84.8 808.06,-48.8 899.94,-48.8 899.94,-84.8"/>
<text text-anchor="middle" x="854" y="-62.6" font-family="Times,serif" font-size="14.00">UsersModule</text>
</g>
<!-- UsersModule&#45;&gt;AuthModule -->
<g id="edge7" class="edge">
<title>UsersModule&#45;&gt;AuthModule</title>
<path fill="none" stroke="black" d="M838.76,-84.83C838.76,-105.57 838.76,-136.8 838.76,-136.8 838.76,-136.8 574.85,-136.8 574.85,-136.8"/>
<polygon fill="black" stroke="black" points="574.85,-133.3 564.85,-136.8 574.85,-140.3 574.85,-133.3"/>
</g>
<!-- UsersModule&#45;&gt;AppModule -->
<g id="edge5" class="edge">
<title>UsersModule&#45;&gt;AppModule</title>
<path fill="none" stroke="black" d="M869.24,-84.89C869.24,-124.79 869.24,-216.8 869.24,-216.8 869.24,-216.8 661.94,-216.8 661.94,-216.8"/>
<polygon fill="black" stroke="black" points="661.94,-213.3 651.94,-216.8 661.94,-220.3 661.94,-213.3"/>
</g>
<!-- UsersService  -->
<g id="node14" class="node">
<title>UsersService </title>
<polygon fill="#fb8072" stroke="black" points="1345.86,-160.8 1252.14,-160.8 1252.14,-124.8 1345.86,-124.8 1345.86,-160.8"/>
<text text-anchor="middle" x="1299" y="-138.6" font-family="Times,serif" font-size="14.00">UsersService </text>
</g>
<!-- UsersModule&#45;&gt;UsersService  -->
<g id="edge13" class="edge">
<title>UsersModule&#45;&gt;UsersService </title>
<path fill="none" stroke="black" stroke-dasharray="5,2" d="M899.95,-60.8C1013.64,-60.8 1299,-60.8 1299,-60.8 1299,-60.8 1299,-114.6 1299,-114.6"/>
<polygon fill="black" stroke="black" points="1295.5,-114.6 1299,-124.6 1302.5,-114.6 1295.5,-114.6"/>
</g>
<!-- AppService -->
<g id="node7" class="node">
<title>AppService</title>
<ellipse fill="#fdb462" stroke="black" cx="371" cy="-142.8" rx="56.75" ry="18"/>
<text text-anchor="middle" x="371" y="-138.6" font-family="Times,serif" font-size="14.00">AppService</text>
</g>
<!-- AppService&#45;&gt;AppModule -->
<g id="edge6" class="edge">
<title>AppService&#45;&gt;AppModule</title>
<path fill="none" stroke="black" d="M371,-161.05C371,-183.82 371,-219.8 371,-219.8 371,-219.8 558.1,-219.8 558.1,-219.8"/>
<polygon fill="black" stroke="black" points="558.1,-223.3 568.1,-219.8 558.1,-216.3 558.1,-223.3"/>
</g>
<!-- AuthService -->
<g id="node8" class="node">
<title>AuthService</title>
<ellipse fill="#fdb462" stroke="black" cx="215" cy="-66.8" rx="59.11" ry="18"/>
<text text-anchor="middle" x="215" y="-62.6" font-family="Times,serif" font-size="14.00">AuthService</text>
</g>
<!-- AuthService&#45;&gt;AuthModule -->
<g id="edge8" class="edge">
<title>AuthService&#45;&gt;AuthModule</title>
<path fill="none" stroke="black" d="M274.32,-66.8C340.88,-66.8 439.65,-66.8 439.65,-66.8 439.65,-66.8 439.65,-142.8 439.65,-142.8 439.65,-142.8 466.99,-142.8 466.99,-142.8"/>
<polygon fill="black" stroke="black" points="466.99,-146.3 476.99,-142.8 466.99,-139.3 466.99,-146.3"/>
</g>
<!-- JwtStrategy -->
<g id="node9" class="node">
<title>JwtStrategy</title>
<ellipse fill="#fdb462" stroke="black" cx="81" cy="-66.8" rx="56.77" ry="18"/>
<text text-anchor="middle" x="81" y="-62.6" font-family="Times,serif" font-size="14.00">JwtStrategy</text>
</g>
<!-- JwtStrategy&#45;&gt;AuthModule -->
<g id="edge9" class="edge">
<title>JwtStrategy&#45;&gt;AuthModule</title>
<path fill="none" stroke="black" d="M81,-84.91C81,-94.7 81,-104.8 81,-104.8 81,-104.8 516.77,-104.8 516.77,-104.8 516.77,-104.8 516.77,-114.69 516.77,-114.69"/>
<polygon fill="black" stroke="black" points="513.27,-114.69 516.77,-124.69 520.27,-114.69 513.27,-114.69"/>
</g>
<!-- EmailHandlerService  -->
<g id="node11" class="node">
<title>EmailHandlerService </title>
<polygon fill="#fb8072" stroke="black" points="1550,-228.8 1410,-228.8 1410,-192.8 1550,-192.8 1550,-228.8"/>
<text text-anchor="middle" x="1480" y="-206.6" font-family="Times,serif" font-size="14.00">EmailHandlerService </text>
</g>
<!-- EmailHandlerModule -->
<g id="node12" class="node">
<title>EmailHandlerModule</title>
<polygon fill="#8dd3c7" stroke="black" points="1549.08,-160.8 1546.08,-164.8 1525.08,-164.8 1522.08,-160.8 1410.92,-160.8 1410.92,-124.8 1549.08,-124.8 1549.08,-160.8"/>
<text text-anchor="middle" x="1480" y="-138.6" font-family="Times,serif" font-size="14.00">EmailHandlerModule</text>
</g>
<!-- EmailHandlerModule&#45;&gt;EmailHandlerService  -->
<g id="edge11" class="edge">
<title>EmailHandlerModule&#45;&gt;EmailHandlerService </title>
<path fill="none" stroke="black" stroke-dasharray="5,2" d="M1480,-161.02C1480,-161.02 1480,-182.53 1480,-182.53"/>
<polygon fill="black" stroke="black" points="1476.5,-182.53 1480,-192.53 1483.5,-182.53 1476.5,-182.53"/>
</g>
<!-- EmailHandlerService -->
<g id="node13" class="node">
<title>EmailHandlerService</title>
<ellipse fill="#fdb462" stroke="black" cx="1480" cy="-66.8" rx="94.32" ry="18"/>
<text text-anchor="middle" x="1480" y="-62.6" font-family="Times,serif" font-size="14.00">EmailHandlerService</text>
</g>
<!-- EmailHandlerService&#45;&gt;EmailHandlerModule -->
<g id="edge12" class="edge">
<title>EmailHandlerService&#45;&gt;EmailHandlerModule</title>
<path fill="none" stroke="black" d="M1480,-84.81C1480,-84.81 1480,-114.65 1480,-114.65"/>
<polygon fill="black" stroke="black" points="1476.5,-114.65 1480,-124.65 1483.5,-114.65 1476.5,-114.65"/>
</g>
<!-- UsersService -->
<g id="node15" class="node">
<title>UsersService</title>
<ellipse fill="#fdb462" stroke="black" cx="1166" cy="-142.8" rx="61.97" ry="18"/>
<text text-anchor="middle" x="1166" y="-138.6" font-family="Times,serif" font-size="14.00">UsersService</text>
</g>
<!-- UsersService&#45;&gt;UsersModule -->
<g id="edge14" class="edge">
<title>UsersService&#45;&gt;UsersModule</title>
<path fill="none" stroke="black" d="M1166,-124.77C1166,-104.03 1166,-72.8 1166,-72.8 1166,-72.8 910.04,-72.8 910.04,-72.8"/>
<polygon fill="black" stroke="black" points="910.04,-69.3 900.04,-72.8 910.04,-76.3 910.04,-69.3"/>
</g>
</g>
</svg>
